<?xml version="1.0"?>
<svg width="256" height="237" xmlns="http://www.w3.org/2000/svg" xmlns:svg="http://www.w3.org/2000/svg">
 <!-- SVG created with Arrow, by QuiverAI (https://quiver.ai) -->
 <defs>
  <linearGradient id="paint0_linear_231_5011" x1="0.5" x2="0.5" y1="0" y2="1">
   <stop offset="0" stop-color="#282552"/>
   <stop offset="1" stop-color="#262254"/>
  </linearGradient>
  <linearGradient id="paint1_linear_231_5011" x1="0.53" x2="0.53" y1="0" y2="1">
   <stop offset="0" stop-color="#F9B996"/>
   <stop offset="1" stop-color="#FDC89D"/>
  </linearGradient>
  <linearGradient id="paint2_linear_231_5011" x1="0.5" x2="0.5" y1="0" y2="1">
   <stop offset="0" stop-color="#F9B996"/>
   <stop offset="1" stop-color="#FDC89D"/>
  </linearGradient>
  <linearGradient id="paint3_linear_231_5011" x1="0.5" x2="0.5" y1="0" y2="1">
   <stop offset="0" stop-color="#FDB98A"/>
   <stop offset="1" stop-color="#FFDDB6"/>
  </linearGradient>
  <linearGradient id="paint4_linear_231_5011" x1="0.5" x2="0.5" y1="0" y2="0.83">
   <stop offset="0" stop-color="#FDB98A"/>
   <stop offset="1" stop-color="#FFD4AC"/>
  </linearGradient>
  <linearGradient id="paint5_linear_231_5011" x1="0.21" x2="0.46" y1="-0.03" y2="1.16">
   <stop offset="0" stop-color="#B11E3B"/>
   <stop offset="1" stop-color="#BA1C34"/>
  </linearGradient>
  <linearGradient id="paint6_linear_231_5011" x1="0.33" x2="0.38" y1="-0.18" y2="1.29">
   <stop offset="0" stop-color="#B11E3B"/>
   <stop offset="1" stop-color="#BA1C34"/>
  </linearGradient>
 </defs>
 <g class="layer">
  <title>Layer 1</title>
  <path d="m247.2,116.9c10.55,-25.97 9.73,-45.12 8.24,-61.72c-1.95,-23.24 -9.79,-27.01 -22.55,-25.63c-8.11,0.9 -15.14,3.63 -20.46,6.52c-12.08,-16.17 -32.32,-25.97 -69,-28.51c-2.79,-4.95 -9.53,-7.25 -16.44,-7.25c-6.9,0 -11.76,2.3 -14.81,6.93c-32.12,3.06 -55.88,9.78 -69.83,27.89c-0.41,0.53 -0.8,1.07 -1.18,1.62c-6.33,-3.22 -14.12,-6.69 -23.56,-6.69c-10.76,0 -16.57,7.11 -17.1,26.69c-0.57,21.08 0.12,33.91 8.58,60.15c-6.46,18.28 -9.08,38.37 -8.16,50.12c3.13,38.98 53.28,68.3 122,68.3l5.72,0c61.61,0 126.3,-28.3 126.6,-69.25c0.11,-11.29 -2.75,-32.97 -7.98,-49.17l-0.07,0z" fill="url(#paint0_linear_231_5011)" id="svg_1"/>
  <path d="m20.97,107.4c-8.18,-16.81 -7.58,-40.01 -5.76,-57.32c0.85,-7.9 3.92,-8.61 7.38,-7.76c5.69,1.46 9.6,2.77 14.12,5.45c-3.7,13.95 -5.23,37.45 -8.19,53.96l-7.55,5.67z" fill="url(#paint1_linear_231_5011)" id="svg_2"/>
  <path d="m234.6,117.2c7.55,-17.11 8.38,-31.94 6.55,-58.94c-1.07,-9.3 -2.44,-17.05 -8.19,-15.99c-5.74,1.06 -9.35,2.74 -13.35,4.89l7.44,53.89l7.55,6.81l0,9.34z" fill="url(#paint2_linear_231_5011)" id="svg_3"/>
  <path d="m23.72,117.2c-6.25,18.38 -7.6,41.36 -6.25,49.88c4.64,30.01 49.69,51.36 109.6,51.36c56.68,0 111.6,-25.6 112.1,-56.07c0.21,-11.08 -2.43,-27 -6.58,-45.17c-3.54,6.7 -13.68,7.13 -22.65,6.18c-20.65,-2.34 -38.8,-12.32 -82.9,-13.27c-34.3,-0.74 -56.3,12.65 -81.85,13.27c-11.83,0.32 -18.23,-2.34 -21.54,-6.18l0.07,0z" fill="url(#paint3_linear_231_5011)" id="svg_4"/>
  <path d="m17.62,160.3c0.46,-8.11 14.79,-4.06 21.3,-4.06c17.05,0 26.39,6.51 44.87,14.05l13.05,-14.05c6.98,-6.99 11.87,-8.55 20.84,-8.55l17.53,0c10.87,0 16.61,2.15 22.35,7.9l16.16,15.55c16.16,-8.39 24.55,-13.7 41.22,-14.43c7.34,-0.33 20.25,0.73 24.3,3.82c0.72,-7.33 -4.05,-30.27 -6.58,-43.26c-3.85,4.84 -9.04,6.62 -22.65,6.19c-17.23,-0.57 -39.87,-12.62 -82.9,-13.47c-33.98,-0.68 -53.35,11.81 -79.3,13.26c-10.57,0.59 -19.19,-1.29 -24.09,-7.04c-3.5,7.93 -7.6,32.31 -6.1,44.09z" fill="url(#paint4_linear_231_5011)" id="svg_5"/>
  <path d="m126.7,155.2l14.05,0c8.97,0 11.08,5.97 11.08,10.95c0,6.5 -2.94,10.04 -7.14,13.69c-7.06,6.29 -12.46,11.03 -16,11.03c-3.95,0 -11.61,-7.3 -17.05,-11.95c-4.52,-3.85 -6.47,-6.7 -6.47,-12.77c0,-7.03 3.95,-10.95 11.6,-10.95l9.93,0z" fill="#25214F" id="svg_6"/>
  <path d="m80.47,123.2c-10.55,0.53 -17.61,9.49 -17.61,17.69c0,10.2 7.65,18.72 17.61,18.72c11.24,0 17.29,-8.97 17.29,-18.2c0,-9.65 -7.95,-18.74 -17.29,-18.21z" fill="#25214F" id="svg_7"/>
  <path d="m175.3,123c-10.55,0.53 -17.11,10.32 -17.11,18c0,10.2 8.46,18.72 17.43,18.72c11.24,0 18.1,-9.5 18.1,-17.77c0,-9.65 -7.65,-19.48 -18.42,-18.95z" fill="#25214F" id="svg_8"/>
  <path d="m126.8,16.06c-35.95,0 -66.66,8.11 -76.9,29.46c-3.44,7.22 -4.5,24.84 -5.75,49.39c19.65,-8.86 47.93,-16.2 82.65,-16.2c29.1,0 54.11,6.07 84.92,16.51c-2.94,-16.18 -2.02,-34.24 -6.86,-49.7c-9.46,-18.91 -34.06,-29.46 -78.06,-29.46z" fill="url(#paint5_linear_231_5011)" id="svg_9"/>
  <path d="m120.4,41.65l0.2,9.11l31.2,0l0.03,13.34l-30.83,-0.08l0.2,13.04l-14.67,0.12l0,-49l43.59,0l0.72,0.72l0,12.55l-30.44,0.2z" fill="#25214F" id="svg_10" stroke="#25214F" stroke-miterlimit="10" stroke-width="2" transform="matrix(1 0 0 1 0 0)"/>
  <path d="m121.1,37.69l29.33,-0.24l0.1,-9.17l-43.89,-0.2l-0.3,46.83l14.76,-0.1l0,-14.16l29.33,0.1l0.1,-10.19l-29.43,0.2l0,-13.07z" fill="#fff" id="svg_11" stroke="#fff" stroke-miterlimit="10" stroke-width="2" transform="matrix(1 0 0 1 0 0)"/>
  <path d="m126.8,86.05c-32.33,0 -60.78,7.91 -79.62,17.56c-9.96,4.73 -9.13,7.48 -5.8,9.11c4.64,2.29 11.77,0.83 20.03,-1.42c19.34,-4.94 38.29,-10.68 64.77,-10.68c25.02,0 40.97,4.94 64,9.85c7.45,1.84 17.59,3.99 22.43,1.84c4.29,-1.84 3.67,-5.23 0,-6.98c-17.21,-9.24 -45.46,-19.28 -85.81,-19.28z" fill="url(#paint6_linear_231_5011)" id="svg_12"/>
 </g>
</svg>