<?xml version="1.0"?>
<svg width="256" height="238" xmlns="http://www.w3.org/2000/svg" xmlns:svg="http://www.w3.org/2000/svg">
 <!-- SVG created with Arrow, by QuiverAI (https://quiver.ai) -->
 <g class="layer">
  <title>Layer 1</title>
  <path d="m247.4,116.9c11.98,-25.73 9,-74.3 4.17,-88c-2.74,-7.66 -8.62,-8.5 -12.93,-7.83c-11.17,1.83 -21.86,7.18 -32.77,13.22c-11.57,-16.1 -31.97,-25.52 -65.72,-28.17c-3.27,-4.27 -6.84,-6.14 -13.1,-6.14c-6.72,0 -9.95,1.72 -13.45,5.76c-29.48,2.42 -52.27,9.52 -66.39,27.16c-0.47,0.59 -0.91,1.2 -1.33,1.82c-9.15,-5.83 -18.11,-10.92 -28.81,-13.13c-7.12,-1.5 -12.36,3.1 -13.96,9.03c-6.25,19.38 -3.81,59.49 4.55,86c-5.49,17.32 -7.73,32.45 -7.66,46.65c0.17,36.57 43.4,73.64 124.7,73.77l0.35,0c64.92,0 129.9,-29.77 130.1,-73.23c0.07,-11.55 -2.87,-27.75 -7.78,-46.91l0.03,0z" fill="#262251" id="svg_1"/>
  <path d="m236,115.9c12.15,-22.22 12.01,-64.47 6.73,-83c-1,-3.45 -3.59,-3.17 -5.33,-2.82c-10.25,2.22 -18.7,7.8 -26.77,12.32c4.12,9.84 5.42,31.51 7.12,53.53c6.46,2.78 13.33,6.53 13.12,12.89c-0.32,10.02 -11.79,11.87 -20.18,11.42c-16.74,-0.93 -38.57,-8.33 -58.66,-11.55c-8.86,-1.45 -15.16,-2.08 -24.85,-2c-25.03,0.24 -45.99,8.45 -71.09,12.19c-8.71,1.35 -18.02,1.84 -25.27,-1.43c-7.24,-3.27 -9.75,-13.31 -2.04,-18.36c2.35,-1.52 4.85,-2.81 7.45,-3.93c1.22,-15.33 2.44,-32.94 6.64,-52.61c-8.92,-6.45 -17.8,-10.97 -25.84,-12.47c-2.35,-0.45 -4.35,0.31 -5.35,4.2c-5.28,19.65 -4.31,52.41 6.26,80.97c-6.02,16.88 -6.5,32.81 -6.5,45.56c0,32.07 44.14,64.77 113.8,64.77c61.47,0 117.6,-30.48 117.6,-63.82c0,-12.74 -2.92,-28.37 -6.85,-45.86l0.01,0z" fill="#FBBE8F" id="svg_2"/>
  <path d="m242.8,162.1c-2.89,-2.93 -11.32,-8 -25.67,-8c-18.15,0 -33.03,10.82 -44.43,18.78c-11.19,-13.27 -18.74,-22.41 -36.42,-22.81c-6.1,-0.15 -9.58,-0.15 -17.98,0c-15.45,0.31 -24.24,8.99 -35.5,22.81c-11.4,-8.26 -26.28,-18.48 -44.43,-18.78c-12.6,-0.23 -21.52,4.12 -26.79,8.46l0,0.24c0,32.07 44.13,62.77 113.8,62.77c60.6,0 116,-30.48 117.4,-63.47l0.02,0z" fill="#FFDBBA" id="svg_3"/>
  <path d="m28.31,99.79c-7,-16.88 -10.13,-35.75 -8.55,-50.78c0.35,-2.9 1.36,-2.9 2.63,-1.56c6.13,5.36 11.33,11.48 16.39,17.37l0.23,0.19c-1.1,8.8 -1.94,18.93 -2.64,30.48c-2.89,1.22 -5.75,2.62 -8.06,4.3z" fill="#3C7272" id="svg_4"/>
  <path d="m226.5,99.79c7,-16.88 9.62,-33.57 8.62,-50.17c-0.27,-3.51 -1.62,-3.16 -2.89,-1.89c-6.57,6 -10.29,11.2 -17.71,18.41l-0.1,0.08c1,8.57 1.86,18.24 2.74,29.17c3.07,1.27 6.44,2.54 9.34,4.4z" fill="#3C7272" id="svg_5"/>
  <path d="m126.8,12.03c-32.81,0 -64.91,8.14 -74.01,27.2c-5,9.76 -5.5,28.32 -6.5,52.48c22.5,-9.62 51.5,-15.93 79.8,-15.93c27.7,0 53.7,5.36 81.7,15.93c-1.7,-17.43 -2.4,-36.64 -6.7,-49.24c-8.2,-22.3 -37.5,-30.44 -74.29,-30.44z" fill="#B71A35" id="svg_6"/>
  <path d="m212.1,102.1c-15,-9.62 -48.5,-20.04 -85.29,-20.04c-31.71,0 -63.01,9.17 -81.61,19.14c-7.2,3.89 -6.2,8.95 2.5,8.8c13.3,0 40.1,-13.89 72.3,-14.02c34.1,-0.62 54.1,9.11 77.6,13.52c11.5,2.36 19.1,-0.3 14.5,-7.4z" fill="#B71A35" id="svg_7"/>
  <path d="m79.45,124.1l0.05,0c-9.79,0 -15.74,8.63 -15.74,15.94c0,8.99 6.35,17.09 15.5,17.09l0.24,0c9.51,0 15.61,-8.64 15.61,-17.2c-0.35,-8.3 -6.8,-15.93 -15.66,-15.83z" fill="#262251" id="svg_8"/>
  <path d="m175,123.9l0.05,0c-9.79,0 -15.74,8.63 -15.74,15.94c0,8.99 6.35,17.09 15.5,17.09l0.24,0c9.51,0 15.61,-8.64 15.61,-17.2c-0.35,-8.3 -6.8,-15.93 -15.66,-15.83z" fill="#262251" id="svg_9"/>
  <path d="m151.4,197.6c-7.1,-2.69 -17.6,-6.34 -20.6,-8.69c7.3,-5.66 17.8,-14.75 18,-20.89c0.5,-8.01 -4.8,-9.65 -10.2,-9.65l-22.2,0c-7.7,0 -10.1,3.74 -10.1,9.5c0,7.26 10,15.12 17.3,20.79c-2,2.65 -11.8,6.54 -19.9,9.39c-4.1,1.4 -2.5,7.06 2.3,7.41c6.3,0.3 17.7,-5.41 21.4,-7.96c5.3,3.2 13.7,7.04 20.5,7.66c5.5,0.55 8.2,-5.81 3.5,-7.56z" fill="#262251" id="svg_10"/>
  <path d="m108.3,24.81l0,48.12l14,0l0,-14.87l25.6,0l0,-14.49l-25.6,0l0,-7.31l25.4,0l0,-11.45l-39.4,0z" fill="#262251" id="svg_11" transform="matrix(1 0 0 1 0 0)"/>
  <path d="m108.1,24.81l0,43.87l14,0l0,-14.87l23.83,0.35l0.03,-10.69l-23.79,0.13l-0.07,-11.7l25.4,0l0,-7.1l-39.4,0z" fill="#fff" id="svg_12"/>
 </g>
</svg>